#!OML:ASF H:\Dans Jumps\Project 1\Capture day 1\Session 1\subject.ASF
:FULLY-SPECIFIED
:DEGREES
216
root 0.468993 15.4692 -16.2713 17.3454 -0.962499 -1.53719
lowerback 17.21 -0.08195 -0.330678
upperback 8.63002 -0.114161 2.10892
thorax -0.430545 -0.118222 2.42452
lowerneck -15.9379 0.763862 -1.3268
upperneck 14.8935 1.65454 -1.68875
head 7.19574 0.556 -0.156661
rclavicle 1.41137e-014 -6.36111e-015
rhumerus -28.3586 -10.7345 -77.7955
rradius 25.9055
rwrist 26.7587
rhand -20.1031 -27.1135
rfingers 7.12502
rthumb 6.24031 -57.0016
lclavicle 1.41137e-014 -6.36111e-015
lhumerus -26.807 -7.41226 88.7881
lradius 22.2609
lwrist 15.1289
lhand -28.0616 -3.92281
lfingers 7.12502
lthumb -1.44537 26.052
rfemur -58.9781 -4.2508 22.0262
rtibia 65.0345
rfoot -22.5408 -2.98206
rtoes 7.92492
lfemur -58.7601 9.28117 -21.9184
ltibia 64.4636
lfoot -21.6483 5.80525
ltoes -2.18553
217
root 0.469786 15.4295 -16.2918 17.5449 -0.96317 -1.55479
lowerback 17.3896 -0.0649539 -0.353831
upperback 8.66385 -0.0945298 2.11697
thorax -0.488059 -0.109343 2.44422
lowerneck -15.9788 0.76202 -1.32372
upperneck 14.6532 1.65119 -1.7128
head 7.12464 0.555334 -0.165565
rclavicle 3.18055e-015 -8.34896e-015
rhumerus -28.4719 -10.697 -77.7786
rradius 25.8891
rwrist 26.7085
rhand -20.1081 -27.0565
rfingers 7.12502
rthumb 6.2355 -56.9448
lclavicle 3.18055e-015 -8.34896e-015
lhumerus -26.9614 -7.4448 88.8399
lradius 22.2375
lwrist 15.2834
lhand -28.1742 -4.13465
lfingers 7.12502
lthumb -1.55416 25.8394
rfemur -59.5937 -4.22471 22.065
rtibia 65.548
rfoot -22.6415 -3.0327
rtoes 7.89306
lfemur -59.3849 9.26874 -21.9559
ltibia 64.9955
lfoot -21.7703 5.89073
ltoes -2.31084
218
root 0.470657 15.3896 -16.312 17.7506 -0.967489 -1.58112
lowerback 17.5654 -0.0455312 -0.370521
upperback 8.69478 -0.0708507 2.1271
thorax -0.54678 -0.0982963 2.46164
lowerneck -16.0136 0.759445 -1.32807
upperneck 14.4091 1.64701 -1.72959
head 7.05122 0.554637 -0.170995
rclavicle -1.17283e-014 -2.5842e-015
rhumerus -28.5896 -10.6333 -77.7719
rradius 25.8824
rwrist 26.6506
rhand -20.104 -27.0246
rfingers 7.12502
rthumb 6.23941 -56.9127
lclavicle -1.17283e-014 -2.5842e-015
lhumerus -27.1184 -7.46545 88.8901
lradius 22.2129
lwrist 15.4087
lhand -28.261 -4.30864
lfingers 7.12502
lthumb -1.63801 25.6648
rfemur -60.2127 -4.1948 22.1141
rtibia 66.0536
rfoot -22.7379 -3.08205
rtoes 7.86298
lfemur -60.0165 9.27327 -21.9904
ltibia 65.5252
lfoot -21.898 5.96783
ltoes -2.44661
219
root 0.47167 15.3498 -16.3318 17.9621 -0.973525 -1.61007
lowerback 17.7324 -0.0243543 -0.385227
upperback 8.72402 -0.0446866 2.13873
thorax -0.602751 -0.0860045 2.47896
lowerneck -16.0583 0.758106 -1.32968
upperneck 14.1761 1.64455 -1.74794
head 6.98328 0.554583 -0.177136
rclavicle -1.07344e-014 1.92821e-014
rhumerus -28.7105 -10.5578 -77.7681
rradius 25.8787
rwrist 26.6008
rhand -20.0806 -26.9858
rfingers 7.12502
rthumb 6.26197 -56.8732
lclavicle -1.07344e-014 1.92821e-014
lhumerus -27.2801 -7.48081 88.9437
lradius 22.1859
lwrist 15.5241
lhand -28.3702 -4.5346
lfingers 7.12502
lthumb -1.74347 25.438
rfemur -60.7789 -4.16623 22.1671
rtibia 66.3699
rfoot -22.7065 -3.10842
rtoes 7.83248
lfemur -60.5953 9.28989 -22.0287
ltibia 65.8624
lfoot -21.9089 6.00208
ltoes -2.61391
220
root 0.472842 15.3102 -16.3509 18.1755 -0.981825 -1.64132
lowerback 17.8976 -0.00224741 -0.401654
upperback 8.75183 -0.0175929 2.15263
thorax -0.659273 -0.0733495 2.49938
lowerneck -16.0931 0.755735 -1.34139
upperneck 13.9365 1.64105 -1.75715
head 6.9114 0.554489 -0.178819
rclavicle 3.97569e-015 -1.07344e-014
rhumerus -28.8368 -10.4503 -77.7744
rradius 25.8894
rwrist 26.5518
rhand -20.0601 -26.975
rfingers 7.12502
rthumb 6.28181 -56.8618
lclavicle 3.97569e-015 -1.07344e-014
lhumerus -27.4443 -7.46393 88.9914
lradius 22.1625
lwrist 15.6031
lhand -28.4308 -4.64951
lfingers 7.12502
lthumb -1.80202 25.3226
rfemur -61.3432 -4.1393 22.2232
rtibia 66.6809
rfoot -22.677 -3.13144
rtoes 7.79698
lfemur -61.1723 9.31307 -22.0672
ltibia 66.1952
lfoot -21.9265 6.03928
ltoes -2.79405
221
root 0.474983 15.3664 -16.3839 18.3927 -0.990097 -1.67198
lowerback 18.0549 0.0208358 -0.418167
upperback 8.77797 0.0106712 2.16708
thorax -0.713418 -0.0601313 2.52009
lowerneck -16.1423 0.754279 -1.34311
upperneck 13.7113 1.6383 -1.7736
head 6.84691 0.554376 -0.184318
rclavicle -2.78299e-015 8.15017e-015
rhumerus -28.9676 -10.3513 -77.7772
rradius 25.8972
rwrist 26.5276
rhand -20.0344 -26.9401
rfingers 7.12502
rthumb 6.30665 -56.8262
lclavicle -2.78299e-015 8.15017e-015
lhumerus -27.618 -7.45349 89.0455
lradius 22.1445
lwrist 15.7062
lhand -28.5258 -4.79601
lfingers 7.12502
lthumb -1.89376 25.1753
rfemur -61.4755 -4.10548 22.284
rtibia 66.5539
rfoot -22.6482 -3.16026
rtoes 7.76338
lfemur -61.3219 9.33009 -22.1143
ltibia 66.0954
lfoot -21.9457 6.09284
ltoes -3.0063
222
root 0.476329 15.3286 -16.4021 18.6129 -0.995186 -1.70014
lowerback 18.2068 0.0427454 -0.436269
upperback 8.80134 0.0371686 2.18253
thorax -0.767638 -0.0478232 2.54297
lowerneck -16.188 0.752075 -1.34703
upperneck 13.4865 1.63464 -1.78825
head 6.78199 0.553902 -0.188983
rclavicle 1.43125e-014 -3.08116e-014
rhumerus -29.1038 -10.2517 -77.779
rradius 25.9055
rwrist 26.5224
rhand -20.0133 -26.8906
rfingers 7.12502
rthumb 6.32697 -56.7761
lclavicle 1.43125e-014 -3.08116e-014
lhumerus -27.7996 -7.45098 89.1062
lradius 22.1329
lwrist 15.8449
lhand -28.6234 -4.89864
lfingers 7.12502
lthumb -1.98801 25.0718
rfemur -62.0301 -4.08665 22.3386
rtibia 66.8451
rfoot -22.6225 -3.17828
rtoes 7.73926
lfemur -61.8875 9.35267 -22.1596
ltibia 66.4047
lfoot -21.966 6.1429
ltoes -3.23625
223
root 0.477624 15.2914 -16.4197 18.8358 -0.995821 -1.72674
lowerback 18.3547 0.0627422 -0.452864
upperback 8.82267 0.0613822 2.19718
thorax -0.821762 -0.0365558 2.56448
lowerneck -16.2298 0.749646 -1.34845
upperneck 13.2605 1.63023 -1.80474
head 6.71611 0.553099 -0.194732
rclavicle 4.77083e-015 5.96354e-016
rhumerus -29.2445 -10.1568 -77.7827
rradius 25.9147
rwrist 26.5278
rhand -19.9927 -26.8293
rfingers 7.12502
rthumb 6.34689 -56.7142
lclavicle 4.77083e-015 5.96354e-016
lhumerus -27.9912 -7.47264 89.1739
lradius 22.1283
lwrist 16.0334
lhand -28.7064 -4.95275
lfingers 7.12502
lthumb -2.06815 25.017
rfemur -62.5818 -4.07173 22.393
rtibia 67.1293
rfoot -22.5973 -3.20063
rtoes 7.70801
lfemur -62.4495 9.37138 -22.2062
ltibia 66.7044
lfoot -21.9815 6.19552
ltoes -3.47226
